<?xml version="1.0" encoding="UTF-8"?>
<svg width="62px" height="62px" viewBox="0 0 62 62" version="1.1" xmlns="http://www.w3.org/2000/svg" xmlns:xlink="http://www.w3.org/1999/xlink">
    <title>logo</title>
    <g id="Page-1" stroke="none" stroke-width="1" fill="none" fill-rule="evenodd">
        <g id="logo" transform="translate(0.384615, 0.000000)" fill-rule="nonzero">
            <circle id="Oval" fill="#DB162F" cx="30.7692308" cy="30.7692308" r="30.7692308"></circle>
            <path d="M11.2877704,36.9230769 C11.6210004,36.9230769 11.9639497,36.9025299 12.3166181,36.8614357 C12.6692865,36.8203416 13.0177896,36.7587004 13.3621273,36.6765121 C13.706465,36.5943239 14.0369181,36.4902187 14.3534866,36.3641967 C14.6700552,36.2381747 14.9588545,36.0874963 15.2198847,35.9121613 C15.3809459,35.8190146 15.4614765,35.6984718 15.4614765,35.5505329 L15.4614765,35.5505329 L15.4614765,31.572621 C15.4614765,31.4630367 15.4142689,31.3753692 15.3198537,31.3096186 C15.2254385,31.243868 15.1365772,31.2109927 15.0532697,31.2109927 L15.0532697,31.2109927 L12.7873055,31.2109927 C12.6651212,31.2109927 12.5734829,31.2452378 12.5123907,31.313728 C12.4512986,31.3822182 12.4207525,31.4685159 12.4207525,31.572621 L12.4207525,31.572621 L12.4207525,33.7259535 C12.204153,33.7697873 12.0000496,33.8054022 11.8084423,33.8327983 C11.616835,33.8601943 11.4238393,33.8738924 11.2294551,33.8738924 C10.7684869,33.8738924 10.3463956,33.7889645 9.963181,33.6191088 C9.5799665,33.449253 9.2509019,33.2177561 8.9759871,32.924618 C8.7010723,32.6314798 8.4858613,32.2876589 8.3303539,31.8931553 C8.1748466,31.4986516 8.0970929,31.0767519 8.0970929,30.627456 C8.0970929,30.1781602 8.1748466,29.7548906 8.3303539,29.3576474 C8.4858613,28.9604041 8.7010723,28.6138436 8.9759871,28.3179658 C9.2509019,28.0220881 9.5799665,27.7878515 9.963181,27.6152562 C10.3463956,27.4426608 10.7684869,27.3563632 11.2294551,27.3563632 C11.5960082,27.3563632 11.9403459,27.4111553 12.2624682,27.5207397 C12.5845906,27.630324 12.8872745,27.7837421 13.17052,27.980994 C13.2927044,28.057703 13.3898965,28.0809897 13.4620963,28.050854 C13.5342961,28.0207183 13.606496,27.9618167 13.6786958,27.8741492 L13.6786958,27.8741492 L15.0282774,25.9509439 C15.1004773,25.8358803 15.1115849,25.733145 15.0616004,25.6427379 C15.0116159,25.5523308 14.9394161,25.4797312 14.8450009,25.424939 C14.3229405,25.0797483 13.7661687,24.8153761 13.1746854,24.6318223 C12.5832021,24.4482685 11.9542304,24.3564916 11.2877704,24.3564916 C10.699064,24.3564916 10.1339614,24.4318308 9.5924626,24.5825093 C9.0509638,24.7331878 8.5441765,24.9441377 8.0721006,25.2153589 C7.6000248,25.4865802 7.1709911,25.8139634 6.7849997,26.1975087 C6.3990082,26.5810539 6.0671667,27.0070631 5.789475,27.4755361 C5.5117833,27.9440092 5.2979607,28.4453576 5.1480072,28.9795814 C4.9980537,29.5138051 4.9230769,30.0713154 4.9230769,30.6521125 C4.9230769,31.2329096 4.9980537,31.7904199 5.1480072,32.3246436 C5.2979607,32.8588673 5.5117833,33.3574761 5.789475,33.82047 C6.0671667,34.2834639 6.3990082,34.7053636 6.7849997,35.0861693 C7.1709911,35.4669749 7.6000248,35.7943581 8.0721006,36.068319 C8.5441765,36.3422799 9.0509638,36.5532297 9.5924626,36.7011686 C10.1339614,36.8491075 10.699064,36.9230769 11.2877704,36.9230769 Z M22.8091985,36.9066393 C23.4923201,36.9066393 24.1393417,36.7819871 24.7502634,36.5326827 C25.3611851,36.2833783 25.9110147,35.9368178 26.399752,35.4930012 C26.4830596,35.4327298 26.5552594,35.3628697 26.6163516,35.2834211 C26.6774437,35.2039724 26.7079898,35.1094559 26.7079898,34.9998716 C26.7079898,34.9396002 26.6996591,34.8806986 26.6829976,34.8231668 C26.6663361,34.765635 26.6274592,34.7012542 26.5663671,34.6300244 L26.5663671,34.6300244 L25.6833075,33.6437652 C25.5888923,33.5506186 25.5041964,33.4793887 25.4292196,33.4300758 C25.3542428,33.3807628 25.2806545,33.3561063 25.2084547,33.3561063 C25.1362549,33.3561063 25.0682204,33.3739138 25.0043513,33.4095287 C24.9404822,33.4451436 24.864117,33.498566 24.7752557,33.5697958 C24.6752867,33.6684217 24.5433831,33.7629382 24.379545,33.8533453 C24.2157069,33.9437524 24.0352073,34.0232011 23.8380462,34.0916913 C23.6408851,34.1601815 23.4367817,34.2149737 23.2257361,34.2560678 C23.0146904,34.2971619 22.8091985,34.317709 22.6092605,34.317709 C22.3871072,34.317709 22.1510692,34.2875733 21.9011467,34.2273019 C21.6512242,34.1670305 21.4151862,34.0670348 21.1930329,33.9273148 C20.9708795,33.7875947 20.7751069,33.5999315 20.605715,33.3643252 C20.436323,33.1287188 20.3238579,32.8355807 20.2683196,32.4849107 L20.2683196,32.4849107 L26.26646,32.4849107 C26.6163516,32.4849107 26.8815471,32.4643637 27.0620467,32.4232696 C27.2425463,32.3821754 27.371673,32.308206 27.4494266,32.2013612 C27.5271803,32.0945165 27.5702225,31.950687 27.5785533,31.7698729 C27.586884,31.5890587 27.5910494,31.3561919 27.5910494,31.0712726 C27.5910494,30.6329352 27.5285688,30.2069261 27.4036075,29.7932452 C27.2786462,29.3795642 27.102312,28.9905398 26.8746048,28.6261718 C26.6468976,28.2618039 26.3747598,27.9262018 26.0581913,27.6193656 C25.7416227,27.3125294 25.3931197,27.049527 25.0126821,26.8303583 C24.6322445,26.6111896 24.2254261,26.4413338 23.7922271,26.3207911 C23.3590281,26.2002483 22.9119444,26.1399769 22.4509762,26.1399769 C21.9455774,26.1399769 21.4651708,26.2057275 21.0097564,26.3372287 C20.554342,26.4687299 20.1322507,26.6522837 19.7434823,26.8878901 C19.3547139,27.1234964 19.0034339,27.4070459 18.6896423,27.7385386 C18.3758507,28.0700312 18.1092667,28.4330294 17.8898903,28.8275331 C17.6705138,29.2220367 17.5011219,29.6453063 17.3817145,30.0973417 C17.2623071,30.5493772 17.2026033,31.0164805 17.2026033,31.4986516 C17.2026033,32.2712213 17.3525569,32.9862591 17.6524639,33.6437652 C17.9523709,34.3012713 18.3578008,34.8724798 18.8687535,35.3573905 C19.3797062,35.8423013 19.9739664,36.2217371 20.6515341,36.495698 C21.3291018,36.7696588 22.0483233,36.9066393 22.8091985,36.9066393 Z M24.6253022,30.1507641 L20.3682886,30.1507641 C20.4571499,29.9644707 20.572392,29.7809169 20.7140147,29.6001027 C20.8556375,29.4192886 21.0153102,29.2576516 21.1930329,29.115192 C21.3707556,28.9727323 21.5609744,28.8590386 21.7636893,28.7741107 C21.9664042,28.6891828 22.1760615,28.6467189 22.392661,28.6467189 C22.692568,28.6467189 22.9549867,28.6850734 23.1799169,28.7617825 C23.4048472,28.8384915 23.6047852,28.9453362 23.779731,29.0823167 C23.9546767,29.2192971 24.1101841,29.3781944 24.246253,29.5590086 C24.3823219,29.7398228 24.5086717,29.9370746 24.6253022,30.1507641 L24.6253022,30.1507641 Z M31.8897167,36.7422627 C31.9730242,36.7422627 32.0466125,36.7340439 32.1104816,36.7176063 C32.1743507,36.7011686 32.2423852,36.6710329 32.314585,36.6271992 C32.3867848,36.5778862 32.4409347,36.5066564 32.4770346,36.4135097 C32.5131346,36.320363 32.5311845,36.2272163 32.5311845,36.1340696 L32.5311845,36.1340696 L32.5311845,30.7918325 C32.547846,30.5452678 32.6158805,30.3165104 32.7352879,30.1055605 C32.8546953,29.8946107 33.0018719,29.7110569 33.1768177,29.5548992 C33.3517635,29.3987415 33.5433707,29.2768289 33.7516395,29.1891614 C33.9599082,29.1014939 34.1640116,29.0576602 34.3639497,29.0576602 C34.5972107,29.0576602 34.8263063,29.1042336 35.0512366,29.1973802 C35.2761668,29.2905269 35.4774933,29.4179188 35.655216,29.5795557 C35.8329387,29.7411926 35.9759499,29.927486 36.0842497,30.1384359 C36.1925494,30.3493857 36.2466993,30.5726638 36.2466993,30.8082702 L36.2466993,30.8082702 L36.2466993,36.1587261 C36.2466993,36.3888532 36.29113,36.5436411 36.3799913,36.6230898 C36.4688526,36.7025384 36.6326907,36.7422627 36.8715056,36.7422627 L36.8715056,36.7422627 L38.795909,36.7422627 C38.995847,36.7422627 39.1416351,36.6888404 39.2332734,36.5819956 C39.3249117,36.4751509 39.3707308,36.3176234 39.3707308,36.1094131 L39.3707308,36.1094131 L39.3707308,30.7260819 C39.3707308,30.0959719 39.280481,29.5028466 39.0999814,28.946706 C38.9194818,28.3905655 38.6556747,27.9042849 38.3085601,27.4878644 C37.9614455,27.0714439 37.5393541,26.7426908 37.042286,26.5016052 C36.5452179,26.2605197 35.9801153,26.1399769 35.3469782,26.1399769 C34.9026715,26.1399769 34.5000186,26.18792 34.1390194,26.2838063 C33.7780202,26.3796927 33.4600632,26.5016052 33.1851484,26.6495441 C32.9102337,26.797483 32.6797496,26.9618595 32.4936961,27.1426737 C32.3076427,27.3234879 32.1729622,27.4988228 32.0896547,27.6686786 L32.0896547,27.6686786 L31.914709,26.9454219 C31.8869398,26.8632336 31.8577822,26.7837849 31.8272361,26.7070759 C31.79669,26.6303669 31.7564247,26.5618766 31.7064402,26.5016052 C31.6564557,26.4413338 31.5953635,26.3933907 31.5231637,26.3577758 C31.4509638,26.3221609 31.3648794,26.3043534 31.2649104,26.3043534 L31.2649104,26.3043534 L30.0069671,26.3043534 C29.9347672,26.3043534 29.858402,26.3125722 29.7778714,26.3290099 C29.6973408,26.3454475 29.6209756,26.3838021 29.5487758,26.4440735 L29.5487758,26.4440735 L29.5987603,26.419417 C29.5154528,26.4687299 29.4501952,26.5372202 29.4029876,26.6248876 C29.3557801,26.7125551 29.3321763,26.8084414 29.3321763,26.9125466 L29.3321763,26.9125466 L29.3321763,36.1094131 C29.3321763,36.3011857 29.3849377,36.4546038 29.4904605,36.5696674 C29.5959834,36.684731 29.7681522,36.7422627 30.0069671,36.7422627 L30.0069671,36.7422627 L31.8897167,36.7422627 Z M43.9109899,25.0715295 C44.0109589,25.0715295 44.1012087,25.0482428 44.1817393,25.0016694 C44.2622699,24.9550961 44.3303043,24.8961945 44.3858427,24.8249647 C44.441381,24.7537349 44.4844232,24.6797654 44.5149693,24.6030564 C44.5455154,24.5263473 44.5607884,24.4551175 44.5607884,24.3893669 L44.5607884,24.3893669 L44.5607884,22.7866958 C44.5607884,22.5565686 44.5010847,22.3935619 44.3816773,22.2976756 C44.2622699,22.2017893 44.1053741,22.1538462 43.9109899,22.1538462 L43.9109899,22.1538462 L41.9782557,22.1538462 C41.7672101,22.1538462 41.6117027,22.2017893 41.5117337,22.2976756 C41.4117647,22.3935619 41.3617802,22.5565686 41.3617802,22.7866958 L41.3617802,22.7866958 L41.3617802,24.3893669 C41.3617802,24.8441419 41.567272,25.0715295 41.9782557,25.0715295 L41.9782557,25.0715295 L43.9109899,25.0715295 Z M43.8859976,36.7422627 C44.1025971,36.7422627 44.2692122,36.6888404 44.3858427,36.5819956 C44.5024732,36.4751509 44.5607884,36.3176234 44.5607884,36.1094131 L44.5607884,36.1094131 L44.5607884,26.9454219 C44.5607884,26.8467959 44.5371846,26.7591285 44.4899771,26.6824194 C44.4427695,26.6057104 44.3858427,26.53859 44.3191967,26.4810582 C44.2525507,26.4235264 44.1803508,26.3796927 44.1025971,26.349557 C44.0248435,26.3194213 43.9526436,26.3043534 43.8859976,26.3043534 L43.8859976,26.3043534 L41.9782557,26.3043534 C41.7672101,26.3043534 41.6117027,26.3673644 41.5117337,26.4933864 C41.4117647,26.6194084 41.3617802,26.7700869 41.3617802,26.9454219 L41.3617802,26.9454219 L41.3617802,36.1094131 C41.3617802,36.5313129 41.567272,36.7422627 41.9782557,36.7422627 L41.9782557,36.7422627 L43.8859976,36.7422627 Z M51.8335337,36.9066393 C52.5166553,36.9066393 53.1636769,36.7819871 53.7745986,36.5326827 C54.3855203,36.2833783 54.9353499,35.9368178 55.4240873,35.4930012 C55.5073948,35.4327298 55.5795946,35.3628697 55.6406868,35.2834211 C55.7017789,35.2039724 55.732325,35.1094559 55.732325,34.9998716 C55.732325,34.9396002 55.7239943,34.8806986 55.7073328,34.8231668 C55.6906713,34.765635 55.6517944,34.7012542 55.5907023,34.6300244 L55.5907023,34.6300244 L54.7076427,33.6437652 C54.6132275,33.5506186 54.5285316,33.4793887 54.4535548,33.4300758 C54.3785781,33.3807628 54.3049898,33.3561063 54.2327899,33.3561063 C54.1605901,33.3561063 54.0925556,33.3739138 54.0286865,33.4095287 C53.9648174,33.4451436 53.8884522,33.498566 53.7995909,33.5697958 C53.6996219,33.6684217 53.5677183,33.7629382 53.4038802,33.8533453 C53.2400421,33.9437524 53.0595425,34.0232011 52.8623814,34.0916913 C52.6652203,34.1601815 52.4611169,34.2149737 52.2500713,34.2560678 C52.0390256,34.2971619 51.8335337,34.317709 51.6335957,34.317709 C51.4114424,34.317709 51.1754044,34.2875733 50.9254819,34.2273019 C50.6755594,34.1670305 50.4395215,34.0670348 50.2173681,33.9273148 C49.9952148,33.7875947 49.7994421,33.5999315 49.6300502,33.3643252 C49.4606583,33.1287188 49.3481931,32.8355807 49.2926548,32.4849107 L49.2926548,32.4849107 L55.2907952,32.4849107 C55.6406868,32.4849107 55.9058823,32.4643637 56.0863819,32.4232696 C56.2668815,32.3821754 56.3960082,32.308206 56.4737618,32.2013612 C56.5515155,32.0945165 56.5945577,31.950687 56.6028885,31.7698729 C56.6112192,31.5890587 56.6153846,31.3561919 56.6153846,31.0712726 C56.6153846,30.6329352 56.552904,30.2069261 56.4279427,29.7932452 C56.3029815,29.3795642 56.1266472,28.9905398 55.89894,28.6261718 C55.6712329,28.2618039 55.399095,27.9262018 55.0825265,27.6193656 C54.765958,27.3125294 54.4174549,27.049527 54.0370173,26.8303583 C53.6565797,26.6111896 53.2497613,26.4413338 52.8165623,26.3207911 C52.3833633,26.2002483 51.9362797,26.1399769 51.4753115,26.1399769 C50.9699126,26.1399769 50.489506,26.2057275 50.0340916,26.3372287 C49.5786772,26.4687299 49.1565859,26.6522837 48.7678175,26.8878901 C48.3790491,27.1234964 48.0277692,27.4070459 47.7139775,27.7385386 C47.4001859,28.0700312 47.1336019,28.4330294 46.9142255,28.8275331 C46.6948491,29.2220367 46.5254571,29.6453063 46.4060497,30.0973417 C46.2866423,30.5493772 46.2269386,31.0164805 46.2269386,31.4986516 C46.2269386,32.2712213 46.3768921,32.9862591 46.6767991,33.6437652 C46.9767061,34.3012713 47.382136,34.8724798 47.8930887,35.3573905 C48.4040414,35.8423013 48.9983016,36.2217371 49.6758693,36.495698 C50.353437,36.7696588 51.0726585,36.9066393 51.8335337,36.9066393 Z M53.6496374,30.1507641 L49.3926238,30.1507641 C49.4814851,29.9644707 49.5967272,29.7809169 49.73835,29.6001027 C49.8799727,29.4192886 50.0396454,29.2576516 50.2173681,29.115192 C50.3950908,28.9727323 50.5853096,28.8590386 50.7880245,28.7741107 C50.9907395,28.6891828 51.2003967,28.6467189 51.4169962,28.6467189 C51.7169032,28.6467189 51.9793219,28.6850734 52.2042521,28.7617825 C52.4291824,28.8384915 52.6291204,28.9453362 52.8040662,29.0823167 C52.9790119,29.2192971 53.1345193,29.3781944 53.2705882,29.5590086 C53.4066571,29.7398228 53.5330069,29.9370746 53.6496374,30.1507641 L53.6496374,30.1507641 Z" id="Genie" fill="#FFFFFF"></path>
        </g>
    </g>
</svg>